<?xml version="1.0" encoding="utf-8"?>
<!-- Generator: Adobe Illustrator 16.0.0, SVG Export Plug-In . SVG Version: 6.00 Build 0)  -->
<!DOCTYPE svg PUBLIC "-//W3C//DTD SVG 1.1//EN" "http://www.w3.org/Graphics/SVG/1.1/DTD/svg11.dtd">
<svg version="1.1" xmlns="http://www.w3.org/2000/svg" xmlns:xlink="http://www.w3.org/1999/xlink" x="0px" y="0px"
				 width="500px" height="500px" viewBox="0 0 595.28 841.89" enable-background="new 0 0 595.28 841.89" xml:space="preserve">
			<g id="Layer_2" display="none">
			</g>
			<g id="Layer_1">
				<g>
					<path stroke="#ffffff" fill="none" stroke-width="4" d="M252.467,191.143c5.798,1.102,10.449,3.401,13.95,6.9c3.499,3.501,6,7.601,7.5,12.3c1.5,4.702,2.048,9.727,1.65,15.075
						c-0.401,5.351-1.601,10.425-3.6,15.225c-1.102,2.4-2.426,4.751-3.975,7.05c-1.551,2.301-3.352,4.251-5.4,5.85
						c-2.051,1.601-4.327,2.726-6.825,3.375c-2.501,0.651-5.152,0.576-7.95-0.225c-3.3-0.9-5.501-2.625-6.6-5.175
						c-1.102-2.55-1.575-5.4-1.425-8.55s0.724-6.323,1.725-9.525c0.998-3.199,1.898-5.899,2.7-8.1c0.398-1.298,1.148-1.65,2.25-1.05
						c0.5,0.201,0.825,0.501,0.975,0.9c0.15,0.401,0.124,0.851-0.075,1.35c-0.701,2.001-1.35,3.975-1.95,5.925s-1.151,3.926-1.65,5.925
						c-1.102,5.7-1.027,9.626,0.225,11.775c1.25,2.151,3,2.925,5.25,2.325s4.625-2.449,7.125-5.55c2.499-3.099,4.449-7.099,5.85-12
						c1.699-6.199,2.325-11.949,1.875-17.25c-0.45-5.299-1.776-9.799-3.975-13.5c-2.201-3.699-5.201-6.424-9-8.175
						c-3.801-1.748-8.151-2.224-13.05-1.425c-5.001,0.802-9.551,2.651-13.65,5.55c-4.102,2.902-7.601,6.6-10.5,11.1
						c-1.901,2.902-3.427,6.126-4.575,9.675c-1.151,3.551-1.702,7.076-1.65,10.575c0.049,3.501,0.825,6.802,2.325,9.9
						c1.5,3.101,3.9,5.7,7.2,7.8c0.398,0.202,0.649,0.551,0.75,1.05c0.099,0.501,0.049,0.952-0.15,1.35c-0.701,1.102-1.5,1.301-2.4,0.6
						c-3.802-2.4-6.577-5.375-8.325-8.925c-1.75-3.548-2.676-7.324-2.775-11.325c-0.099-3.999,0.499-8.048,1.8-12.15
						c1.299-4.1,3.049-7.8,5.25-11.1c2.299-3.398,4.974-6.375,8.025-8.925c3.049-2.55,6.349-4.598,9.9-6.15
						c3.548-1.549,7.298-2.55,11.25-3C244.491,190.168,248.466,190.344,252.467,191.143z M248.117,204.343c0,0.101-0.4,1.477-1.2,4.125
						c-0.802,2.651-1.826,6.101-3.075,10.35c-1.251,4.251-2.676,9.101-4.275,14.55c-1.601,5.452-3.251,10.976-4.95,16.575
						c-4,13.301-8.5,28.301-13.5,45c0,0.3-0.501,0.274-1.5-0.075c-1-0.352-2.051-0.876-3.15-1.575c-1.102-0.701-2.125-1.451-3.075-2.25
						c-0.952-0.802-1.376-1.5-1.275-2.1c4.8-17.299,9.15-32.75,13.05-46.35c1.598-5.798,3.173-11.499,4.725-17.1
						c1.549-5.599,2.948-10.575,4.2-14.925c1.25-4.35,2.625-9.225,4.125-14.625c0.099-0.199,0.724-0.023,1.875,0.525
						c1.148,0.551,2.349,1.301,3.6,2.25c1.249,0.952,2.374,1.95,3.375,3C248.065,202.768,248.417,203.645,248.117,204.343z"/>
					<path stroke="#ffffff" fill="none" stroke-width="4" d="M277.515,254.593c2.299-6.6,4.95-12.049,7.95-16.35c3-4.298,6-7.474,9-9.525c3-2.048,5.724-2.974,8.175-2.775
						c2.449,0.202,4.275,1.526,5.475,3.975c1.199,2.451,1.5,5.977,0.9,10.575c-0.6,4.601-2.451,10.251-5.551,16.95
						c-0.201,0.501-0.502,0.801-0.9,0.9c-0.4,0.101-0.801,0.052-1.199-0.15c-1.102-0.398-1.35-1.148-0.75-2.25
						c3-6.099,4.748-11.224,5.25-15.375c0.5-4.148,0.125-6.624-1.125-7.425c-1.252-0.799-3.201,0.427-5.85,3.675
						c-2.651,3.25-5.625,9.126-8.925,17.625c-4.001,10.301-6.352,17.925-7.05,22.875c-0.701,4.95-0.101,7.526,1.8,7.725
						c1.099,0.101,2.524-0.574,4.275-2.025c1.749-1.448,3.649-3.45,5.7-6c2.049-2.55,4.1-5.55,6.15-9
						c2.049-3.45,3.875-7.125,5.475-11.025c0.301-1.399,0.75-3.098,1.352-5.1c0.6-1.999,1.199-4.05,1.799-6.15s1.148-4.073,1.65-5.925
						c0.5-1.849,0.9-3.324,1.199-4.425c0-0.199,0.574-0.023,1.727,0.525c1.148,0.551,2.348,1.275,3.6,2.175
						c1.248,0.9,2.373,1.875,3.375,2.925c0.998,1.05,1.398,1.976,1.199,2.775c-0.4,1.301-1.025,3.126-1.875,5.475
						c-0.85,2.351-1.75,4.927-2.699,7.725c-0.951,2.801-1.928,5.651-2.926,8.55c-1,2.901-1.826,5.576-2.475,8.025
						c-0.652,2.452-1.102,4.477-1.35,6.075c-0.252,1.601-0.127,2.452,0.375,2.55c0.697,0.202,1.623-0.173,2.775-1.125
						c1.148-0.949,2.373-2.299,3.674-4.05c1.299-1.748,2.625-3.724,3.975-5.925c1.352-2.198,2.676-4.425,3.977-6.675
						c1.297-2.25,2.475-4.374,3.523-6.375c1.051-2,1.926-3.699,2.625-5.1c0.699-0.9,1.449-1.25,2.25-1.05
						c0.801,0.202,0.85,0.701,0.15,1.5c-1.102,2.4-2.65,5.527-4.65,9.375c-2,3.851-4.176,7.601-6.523,11.25
						c-2.352,3.652-4.752,6.802-7.201,9.45c-2.451,2.651-4.676,4.026-6.674,4.125c-2.303,0.199-4.002-0.249-5.102-1.35
						c-1.102-1.099-1.799-2.573-2.1-4.425c-0.299-1.849-0.225-3.975,0.225-6.375c0.451-2.4,1.125-4.898,2.025-7.5h-0.299
						c-2.801,5.301-5.776,9.75-8.926,13.35c-3.15,3.6-6.176,6.201-9.075,7.8c-2.901,1.599-5.475,2.175-7.725,1.725
						c-2.25-0.45-3.874-2.051-4.875-4.8c-0.998-2.749-1.223-6.724-0.675-11.925C273.191,268.895,274.815,262.393,277.515,254.593z"/>
					<path stroke="#ffffff" fill="none" stroke-width="4" d="M361.364,235.543c0.099-0.199,0.825-0.023,2.175,0.525c1.351,0.551,2.775,1.275,4.275,2.175s2.85,1.875,4.05,2.925
						c1.2,1.05,1.699,1.976,1.5,2.775c-0.3,0.801-0.802,2.301-1.5,4.5c-0.7,2.201-1.477,4.702-2.325,7.5
						c-0.851,2.801-1.75,5.751-2.699,8.85c-0.952,3.101-1.751,5.925-2.4,8.475c-0.651,2.55-1.102,4.702-1.35,6.45
						c-0.251,1.751-0.176,2.677,0.225,2.775c1.1,0.3,2.6-0.675,4.5-2.925c1.898-2.25,3.849-5,5.85-8.25
						c2-3.249,3.924-6.574,5.775-9.975c1.85-3.398,3.274-6.15,4.275-8.25c0.799-0.799,1.598-1.125,2.399-0.975
						c0.8,0.15,0.849,0.675,0.15,1.575c-1.102,2.4-2.651,5.526-4.65,9.375c-2.001,3.851-4.177,7.601-6.524,11.25
						c-2.352,3.651-4.751,6.801-7.2,9.45c-2.452,2.651-4.676,4.024-6.675,4.125c-1.602,0-3.052-0.25-4.351-0.75
						c-1.301-0.499-2.376-1.474-3.225-2.925c-0.851-1.448-1.327-3.45-1.425-6c-0.102-2.55,0.248-5.824,1.05-9.825
						c-4.102,7.5-8.101,13.2-12,17.1c-3.9,3.9-7.451,5.7-10.65,5.4c-2.7-0.3-4.477-1.852-5.325-4.65c-0.848-2.798-1.099-6.3-0.75-10.5
						c0.352-4.2,1.076-8.798,2.176-13.8c1.099-5,2.324-9.849,3.675-14.55c1.35-4.699,2.648-8.974,3.899-12.825
						c1.25-3.849,2.074-6.675,2.476-8.475c0-0.199,0.574-0.023,1.725,0.525c1.148,0.551,2.349,1.275,3.601,2.175
						c1.249,0.9,2.374,1.875,3.375,2.925c0.998,1.05,1.398,1.927,1.199,2.625l-6,19.65c-3.101,10.301-5.051,17.977-5.85,23.025
						c-0.802,5.051-0.251,7.676,1.65,7.875c1.099,0.101,2.423-0.574,3.975-2.025c1.549-1.448,3.199-3.45,4.95-6
						c1.748-2.55,3.548-5.55,5.399-9c1.85-3.45,3.574-7.125,5.176-11.025c0.3-0.698,0.698-1.999,1.199-3.9
						c0.5-1.898,0.999-3.949,1.5-6.15c0.5-2.199,0.999-4.35,1.5-6.45C360.664,238.243,361.064,236.645,361.364,235.543z"/>
					<path stroke="#ffffff" fill="none" stroke-width="4" d="M412.063,186.943c-0.201,0.501-0.802,2.475-1.8,5.925c-1.001,3.45-2.227,7.702-3.675,12.75
						c-1.451,5.051-3.052,10.477-4.8,16.275c-1.751,5.801-3.401,11.325-4.95,16.575c-1.552,5.25-2.901,9.825-4.05,13.725
						c-1.151,3.9-1.927,6.401-2.325,7.5c-0.9,2.602-1.776,5.227-2.625,7.875c-0.851,2.651-1.552,5.025-2.101,7.125
						c-0.551,2.1-0.926,3.851-1.125,5.25c-0.201,1.401-0.051,2.151,0.45,2.25c1.1,0.3,2.625-0.675,4.575-2.925s3.949-4.999,6-8.25
						c2.049-3.248,3.998-6.574,5.85-9.975c1.85-3.398,3.274-6.15,4.275-8.25c0.698-0.799,1.448-1.1,2.25-0.9
						c0.799,0.202,0.849,0.701,0.15,1.5c-1.102,2.4-2.651,5.527-4.65,9.375c-2.002,3.851-4.177,7.601-6.525,11.25
						c-2.351,3.652-4.776,6.802-7.274,9.45c-2.501,2.651-4.751,4.026-6.75,4.125c-1.901,0.099-3.45-0.274-4.65-1.125
						c-1.2-0.849-1.974-2.4-2.325-4.65c-0.349-2.25-0.199-5.4,0.45-9.45c0.651-4.05,1.875-9.225,3.675-15.525
						c0.199-0.9,0.875-3.375,2.025-7.425c1.148-4.05,2.498-8.85,4.05-14.4c1.55-5.55,3.226-11.449,5.025-17.7
						c1.8-6.249,3.474-12.125,5.024-17.625c1.55-5.499,2.874-10.2,3.976-14.1c1.099-3.9,1.748-6.199,1.95-6.9
						c0.098-0.199,0.698-0.023,1.8,0.525c1.099,0.551,2.299,1.275,3.6,2.175c1.299,0.9,2.424,1.875,3.375,2.925
						C411.888,185.368,412.263,186.244,412.063,186.943z"/>
					<path stroke="#ffffff" fill="none" stroke-width="4" d="M174.392,370.468c1.148,0.551,2.348,1.301,3.6,2.25c1.249,0.952,2.374,1.95,3.375,3c0.998,1.05,1.35,1.927,1.05,2.625
						c0,0.101-0.525,1.95-1.575,5.55c-1.05,3.6-2.426,8.201-4.125,13.8c-1.701,5.602-3.576,11.875-5.625,18.825
						c-2.051,6.951-4.076,13.777-6.075,20.475h4.05c0.3,0.097,0.173,0.671-0.375,1.726c-0.551,1.055-1.026,1.631-1.425,1.725h-3.15
						c-1.402,4.602-2.7,8.926-3.9,12.976c-1.2,4.05-2.25,7.626-3.15,10.725c-1.102,3.601-2.1,6.949-3,10.05
						c0,0.301-0.476,0.249-1.425-0.149c-0.952-0.401-2.001-0.926-3.15-1.575c-1.151-0.651-2.175-1.376-3.075-2.175
						c-0.9-0.802-1.301-1.5-1.2-2.101c0.699-2.399,1.449-5.048,2.25-7.949c0.699-2.499,1.5-5.449,2.4-8.851
						c0.9-3.398,1.898-7.05,3-10.95h-27.45c-1.401,4.702-2.7,9.075-3.9,13.125c-1.2,4.051-2.25,7.627-3.15,10.726
						c-1.102,3.6-2.1,6.899-3,9.899c0,0.301-0.202,0.398-0.6,0.301c-0.401-0.102-0.825-0.326-1.275-0.676
						c-0.45-0.352-0.851-0.775-1.2-1.274c-0.352-0.502-0.476-1.05-0.375-1.65c0.799-2.602,1.699-5.55,2.7-8.85
						c0.799-2.799,1.725-6.023,2.775-9.675c1.05-3.649,2.224-7.625,3.525-11.926h-15.15c-0.501,0-0.699-0.166-0.6-0.501
						s0.323-0.72,0.675-1.151c0.35-0.431,0.75-0.813,1.2-1.15c0.45-0.335,0.773-0.551,0.975-0.647h13.95
						c1.399-4.799,2.874-9.799,4.425-15c1.549-5.198,3.049-10.275,4.5-15.225c1.448-4.95,2.824-9.623,4.125-14.025
						c1.298-4.399,2.449-8.273,3.45-11.625c0.999-3.349,2.049-6.975,3.15-10.875c0.098-0.199,0.349-0.173,0.75,0.075
						c0.398,0.25,0.825,0.651,1.275,1.2c0.45,0.551,0.825,1.2,1.125,1.95c0.3,0.75,0.3,1.477,0,2.175c0,0.101-0.577,2.051-1.725,5.85
						c-1.151,3.802-2.602,8.651-4.35,14.55c-1.75,5.901-3.701,12.476-5.85,19.725c-2.151,7.252-4.275,14.325-6.375,21.225h27.45
						c1.298-4.799,2.674-9.773,4.125-14.924c1.448-5.15,2.85-10.201,4.2-15.15c1.35-4.95,2.648-9.649,3.9-14.1
						c1.249-4.449,2.348-8.375,3.3-11.775c0.949-3.398,1.974-7.1,3.075-11.1C172.615,369.744,173.241,369.919,174.392,370.468z"/>
					<path stroke="#ffffff" fill="none" stroke-width="4" d="M177.616,434.593c2.299-6.601,4.95-12.05,7.95-16.35c3-4.298,6-7.474,9-9.525c3-2.048,5.723-2.974,8.175-2.775
						c2.449,0.202,4.275,1.526,5.475,3.975c1.2,2.451,1.5,5.977,0.9,10.575c-0.6,4.601-2.452,10.251-5.55,16.95
						c-0.202,0.502-0.502,0.802-0.9,0.9c-0.4,0.101-0.801,0.052-1.2-0.15c-1.102-0.398-1.35-1.147-0.75-2.249
						c3-6.1,4.749-11.225,5.25-15.375c0.499-4.148,0.124-6.624-1.125-7.425c-1.251-0.799-3.202,0.427-5.85,3.675
						c-2.651,3.25-5.625,9.126-8.925,17.625c-4.001,10.3-6.352,17.925-7.05,22.874c-0.701,4.95-0.101,7.526,1.8,7.726
						c1.099,0.101,2.524-0.574,4.275-2.025c1.749-1.448,3.649-3.45,5.7-6c2.049-2.55,4.1-5.55,6.15-9
						c2.048-3.45,3.874-7.125,5.475-11.025c0.3-1.398,0.75-3.098,1.35-5.1c0.6-1.999,1.2-4.05,1.8-6.15c0.6-2.1,1.148-4.073,1.65-5.924
						c0.499-1.849,0.9-3.324,1.2-4.425c0-0.199,0.574-0.023,1.725,0.525c1.148,0.551,2.349,1.275,3.6,2.175
						c1.249,0.9,2.374,1.875,3.375,2.925c0.999,1.051,1.399,1.977,1.2,2.775c-0.401,1.301-1.027,3.127-1.875,5.475
						c-0.851,2.352-1.751,4.927-2.7,7.725c-0.952,2.802-1.927,5.651-2.925,8.551c-1.001,2.901-1.826,5.575-2.475,8.024
						c-0.652,2.452-1.102,4.477-1.35,6.075c-0.251,1.601-0.126,2.452,0.375,2.55c0.698,0.202,1.624-0.173,2.775-1.125
						c1.148-0.949,2.375-2.299,3.675-4.05c1.298-1.748,2.625-3.724,3.975-5.925c1.35-2.198,2.674-4.425,3.975-6.675
						c1.298-2.25,2.475-4.374,3.525-6.375c1.05-2,1.924-3.699,2.625-5.1c0.699-0.9,1.449-1.25,2.25-1.051
						c0.799,0.201,0.849,0.701,0.15,1.5c-1.102,2.4-2.651,5.526-4.65,9.375c-2.001,3.851-4.176,7.601-6.525,11.25
						c-2.351,3.651-4.75,6.802-7.2,9.45c-2.452,2.65-4.676,4.026-6.675,4.125c-2.301,0.199-4-0.248-5.1-1.35
						c-1.102-1.1-1.8-2.574-2.1-4.426c-0.3-1.849-0.225-3.975,0.225-6.375c0.45-2.399,1.125-4.898,2.025-7.5h-0.3
						c-2.801,5.302-5.775,9.75-8.925,13.351c-3.15,3.6-6.176,6.201-9.075,7.8c-2.901,1.599-5.475,2.175-7.725,1.725
						c-2.25-0.449-3.874-2.051-4.875-4.8c-0.998-2.749-1.223-6.724-0.675-11.925C173.292,448.895,174.916,442.393,177.616,434.593z"/>
					<path stroke="#ffffff" fill="none" stroke-width="4" d="M248.715,400.243c1.599,1.301,3.549,2.452,5.85,3.45c2.299,1,4.474,1.926,6.525,2.775c2.049,0.851,3.75,1.65,5.1,2.4
						s1.924,1.477,1.725,2.175c-0.3,0.801-0.952,2.55-1.95,5.25c-1,2.7-2.125,5.7-3.375,9c-1.251,3.3-2.475,6.551-3.675,9.75
						c-1.2,3.201-2.1,5.7-2.7,7.5c-0.9,2.602-1.75,5.1-2.55,7.5c-0.802,2.399-1.401,4.525-1.8,6.375c-0.401,1.852-0.577,3.3-0.525,4.35
						c0.049,1.05,0.474,1.575,1.275,1.575c1.298,0,2.974-1.249,5.025-3.75c2.048-2.498,4.148-5.449,6.3-8.85
						c2.149-3.398,4.174-6.875,6.075-10.426c1.898-3.548,3.349-6.323,4.35-8.325c0.698-0.799,1.448-1.125,2.25-0.975
						c0.799,0.15,0.848,0.626,0.15,1.426c-0.701,1.6-1.676,3.65-2.925,6.149c-1.251,2.501-2.625,5.151-4.125,7.95
						c-1.5,2.801-3.101,5.602-4.8,8.399c-1.702,2.801-3.427,5.325-5.175,7.575c-1.751,2.25-3.45,4.076-5.1,5.476
						c-1.65,1.398-3.126,2.1-4.425,2.1c-2.7,0-4.701-0.75-6-2.25c-1.301-1.5-2.1-3.499-2.4-6c-0.3-2.498-0.176-5.374,0.375-8.625
						c0.548-3.248,1.298-6.649,2.25-10.2c0.949-3.548,2.074-7.1,3.375-10.65c1.298-3.548,2.55-6.824,3.75-9.824
						c1.2-3,2.273-5.625,3.225-7.875c0.949-2.25,1.575-3.875,1.875-4.875c-2.501-1.2-5.55-3.099-9.15-5.7
						c-0.802,2.602-1.927,5.576-3.375,8.925c-1.451,3.352-2.925,6.626-4.425,9.825c-1.5,3.202-2.875,6.075-4.125,8.625
						c-1.251,2.55-2.076,4.274-2.475,5.175c-0.3,0.502-0.626,0.825-0.975,0.975c-0.352,0.15-0.675,0.15-0.975,0
						c-0.3-0.149-0.501-0.424-0.6-0.824c-0.101-0.398,0-0.849,0.3-1.35c0.398-0.9,1.249-2.648,2.55-5.25
						c1.298-2.6,2.724-5.525,4.275-8.775c1.549-3.249,3.049-6.574,4.5-9.975c1.449-3.398,2.574-6.349,3.375-8.85
						c-2.001-1.8-3.202-3.874-3.6-6.225c-0.4-2.348-0.3-4.5,0.3-6.45c0.6-1.95,1.575-3.5,2.925-4.65
						c1.35-1.148,2.874-1.425,4.575-0.825c0.698,0.3,1.298,0.75,1.8,1.35c0.5,0.6,0.773,1.5,0.825,2.7
						c0.049,1.2-0.202,2.827-0.75,4.875C251.09,394.418,250.115,397.043,248.715,400.243z"/>
					<path stroke="#ffffff" fill="none" stroke-width="4" d="M338.865,405.793c2.701-0.099,4.549,0.651,5.551,2.25c0.998,1.601,1.424,3.701,1.275,6.3c-0.15,2.602-0.777,5.602-1.875,9
						c-1.102,3.401-2.352,6.851-3.75,10.351c-1.402,3.501-2.801,6.951-4.201,10.35c-1.4,3.4-2.576,6.4-3.525,9
						c-0.951,2.602-1.477,4.701-1.574,6.3c-0.102,1.601,0.5,2.4,1.801,2.4c1.199,0,2.723-1.148,4.574-3.45
						c1.85-2.3,3.75-4.999,5.699-8.101c1.951-3.098,3.826-6.273,5.625-9.524c1.801-3.249,3.199-5.873,4.201-7.875
						c0.697-0.9,1.447-1.25,2.25-1.051c0.799,0.202,0.848,0.701,0.15,1.5c-0.602,1.402-1.477,3.277-2.625,5.626
						c-1.152,2.351-2.502,4.926-4.051,7.725c-1.551,2.801-3.225,5.625-5.025,8.475c-1.799,2.851-3.701,5.452-5.699,7.801
						c-2.002,2.351-4.051,4.274-6.15,5.774s-4.15,2.25-6.15,2.25c-2.5,0-4.225-0.7-5.174-2.1c-0.953-1.399-1.402-3.274-1.352-5.625
						c0.051-2.349,0.475-5.025,1.275-8.025c0.799-3,1.775-6.099,2.926-9.3c1.148-3.199,2.324-6.35,3.525-9.45
						c1.199-3.098,2.197-5.898,3-8.4c0.799-2.498,1.273-4.574,1.424-6.225c0.15-1.65-0.275-2.625-1.275-2.925
						c-0.898-0.3-2.35,0.525-4.35,2.475c-2.002,1.95-4.125,4.401-6.375,7.35c-2.25,2.951-4.424,6.101-6.525,9.45
						c-2.1,3.352-3.699,6.225-4.799,8.625c-0.4,1.401-0.877,3.051-1.426,4.949c-0.551,1.901-1.102,3.852-1.65,5.851
						c-0.551,2.001-1.049,3.876-1.5,5.625c-0.449,1.751-0.824,3.176-1.125,4.274c-0.1,0.199-0.65,0.026-1.648-0.524
						c-1.002-0.549-2.101-1.299-3.301-2.25c-1.2-0.949-2.227-1.95-3.075-3c-0.851-1.05-1.177-1.974-0.975-2.775
						c0.199-0.6,0.6-1.999,1.2-4.2c0.6-2.198,1.275-4.773,2.025-7.725c0.75-2.948,1.523-6.023,2.325-9.225
						c0.799-3.2,1.475-6.174,2.025-8.925c0.549-2.75,0.924-5.049,1.125-6.9c0.199-1.85,0.098-2.874-0.301-3.075
						c-0.9-0.3-2.275,0.525-4.125,2.475c-1.852,1.95-3.802,4.401-5.85,7.35c-2.051,2.951-4.05,6.101-6,9.45
						c-1.95,3.352-3.525,6.225-4.725,8.625c-0.3,1.401-0.727,3.051-1.275,4.949c-0.551,1.901-1.102,3.852-1.65,5.851
						c-0.551,2.001-1.076,3.876-1.575,5.625c-0.501,1.751-0.9,3.176-1.2,4.274c0,0.199-0.551,0-1.65-0.6
						c-1.102-0.6-2.25-1.399-3.45-2.4c-1.2-0.998-2.273-2.074-3.225-3.225c-0.949-1.148-1.324-2.123-1.125-2.925
						c0.202-0.499,0.525-1.65,0.975-3.45s1.026-3.975,1.725-6.525c0.698-2.55,1.448-5.324,2.25-8.324
						c0.799-3.001,1.575-6.024,2.325-9.075c0.75-3.049,1.5-5.926,2.25-8.625c0.75-2.7,1.374-5.049,1.875-7.05c0.398,0,1.2,0.3,2.4,0.9
						c1.2,0.6,2.4,1.35,3.6,2.25c1.2,0.9,2.199,1.875,3,2.925c0.799,1.049,1.1,1.975,0.9,2.775l-3.75,11.7h0.3
						c2.499-4.1,5.025-7.95,7.575-11.551c2.55-3.6,4.999-6.75,7.35-9.449c2.348-2.7,4.549-4.824,6.6-6.375
						c2.049-1.549,3.924-2.424,5.625-2.625c2.6-0.199,4.35,0.375,5.25,1.725c0.9,1.35,1.25,3.277,1.051,5.775
						c-0.203,2.5-0.777,5.426-1.727,8.775c-0.951,3.352-1.926,6.876-2.924,10.574c2.4-3.698,4.875-7.174,7.424-10.425
						c2.551-3.249,4.975-6.075,7.275-8.475c2.299-2.4,4.5-4.298,6.6-5.7C335.566,406.644,337.365,405.894,338.865,405.793z"/>
					<path stroke="#ffffff" fill="none" stroke-width="4" d="M349.216,434.443c2.699-7.801,5.948-14,9.75-18.601c3.799-4.599,7.474-7.65,11.024-9.15
						c3.549-1.5,6.574-1.425,9.075,0.225c2.498,1.65,3.799,4.826,3.9,9.525c1.8,0.6,2.948,1.826,3.449,3.675
						c0.5,1.852,0.549,4.001,0.15,6.451c-0.4,2.451-1.05,5.001-1.95,7.649c-0.899,2.651-1.8,5.076-2.7,7.275
						c-1.5,3.6-3.101,6.951-4.8,10.05c0.9,0.501,2.074,0.75,3.525,0.75c1.448,0,3.124-0.601,5.024-1.8
						c1.898-1.2,3.949-3.125,6.15-5.775c2.198-2.648,4.5-6.375,6.9-11.175c0.3-0.6,0.923-0.949,1.875-1.051
						c0.949-0.098,1.223,0.252,0.824,1.051c-2.901,6.3-5.676,11.051-8.324,14.25c-2.651,3.201-5.126,5.399-7.426,6.6
						c-2.301,1.2-4.35,1.676-6.149,1.425c-1.8-0.248-3.251-0.675-4.351-1.274c-3.4,5.7-7,10.001-10.8,12.899
						c-3.802,2.899-7.45,4.25-10.95,4.051c-2.001-0.102-3.75-0.9-5.25-2.4s-2.55-3.75-3.149-6.75c-0.601-3-0.601-6.799,0-11.4
						C345.615,446.345,347.015,440.844,349.216,434.443z M379.365,416.443c-0.3-1.898-0.975-3.075-2.024-3.525
						c-1.051-0.45-2.352-0.049-3.9,1.2c-1.552,1.251-3.352,3.525-5.4,6.825c-2.051,3.299-4.176,7.75-6.375,13.35
						c-2.001,5.1-3.551,9.476-4.649,13.125c-1.102,3.651-1.826,6.675-2.175,9.075c-0.352,2.399-0.375,4.274-0.075,5.625
						c0.3,1.35,0.849,2.275,1.649,2.774c1.898,1.102,4.299,0.727,7.2-1.125c2.899-1.849,6.05-5.423,9.45-10.725
						c-2.801-2.6-4.451-5.824-4.95-9.675c-0.501-3.849-0.276-7.65,0.675-11.4c0.949-3.75,2.4-7.073,4.351-9.975
						C375.091,419.094,377.165,417.244,379.365,416.443z M379.365,441.043c1.2-2.4,2.225-4.898,3.075-7.5
						c0.849-2.6,1.425-4.974,1.725-7.125c0.301-2.149,0.199-3.9-0.3-5.25c-0.501-1.35-1.552-2.025-3.149-2.025
						c-1.2,0-2.651,1.05-4.351,3.15c-1.701,2.1-3.075,4.676-4.125,7.725c-1.05,3.052-1.5,6.352-1.35,9.9
						c0.149,3.551,1.474,6.775,3.975,9.675c0.698-1.399,1.351-2.648,1.95-3.75c0.499-0.998,0.998-1.95,1.5-2.85
						C378.814,442.093,379.164,441.443,379.365,441.043z"/>
					<path stroke="#ffffff" class="animate"  fill="none" stroke-width="4" d="M437.716,406.093c2.699-0.099,4.549,0.651,5.55,2.25c0.998,1.601,1.399,3.701,1.2,6.3c-0.202,2.602-0.825,5.602-1.875,9
						c-1.051,3.4-2.276,6.852-3.676,10.35c-1.401,3.502-2.826,6.952-4.274,10.351c-1.451,3.4-2.651,6.4-3.601,9
						c-0.951,2.602-1.477,4.701-1.574,6.3c-0.102,1.601,0.499,2.4,1.8,2.4c1.2,0,2.724-1.148,4.575-3.45
						c1.849-2.299,3.75-4.999,5.699-8.1c1.95-3.099,3.825-6.274,5.625-9.525c1.801-3.248,3.199-5.925,4.2-8.024
						c0.398-0.398,0.825-0.676,1.275-0.826c0.45-0.149,0.825-0.173,1.125-0.074c0.3,0.101,0.499,0.276,0.6,0.525
						c0.099,0.25-0.052,0.576-0.45,0.975c-0.6,1.401-1.477,3.276-2.625,5.625c-1.15,2.351-2.5,4.9-4.05,7.649
						c-1.552,2.752-3.225,5.551-5.024,8.4c-1.801,2.85-3.701,5.451-5.7,7.8c-2.002,2.351-4.05,4.275-6.15,5.775
						c-2.1,1.5-4.15,2.299-6.149,2.399c-2.902,0.099-4.676-1.05-5.325-3.449c-0.651-2.4-0.651-5.449,0-9.15
						c0.649-3.698,1.699-7.748,3.149-12.15c1.449-4.398,2.851-8.523,4.2-12.374c1.351-3.85,2.374-7.125,3.075-9.826
						c0.698-2.699,0.6-4.199-0.3-4.5c-0.9-0.3-2.377,0.476-4.425,2.326c-2.051,1.852-4.227,4.225-6.525,7.125
						c-2.302,2.9-4.525,6-6.675,9.3c-2.151,3.3-3.825,6.149-5.025,8.55c-0.3,1.401-0.727,3.052-1.274,4.95
						c-0.551,1.9-1.102,3.851-1.65,5.85c-0.551,2.002-1.076,3.877-1.575,5.625c-0.501,1.751-0.851,3.176-1.05,4.275
						c-0.101,0.199-0.701,0-1.8-0.601c-1.102-0.6-2.25-1.399-3.45-2.399c-1.2-0.999-2.273-2.074-3.225-3.226
						c-0.949-1.148-1.324-2.123-1.125-2.925c0.201-0.499,0.524-1.65,0.975-3.45s1.026-3.975,1.725-6.524
						c0.699-2.551,1.449-5.325,2.25-8.325c0.8-3,1.575-6.023,2.325-9.075c0.75-3.05,1.5-5.948,2.25-8.7
						c0.75-2.749,1.374-5.074,1.875-6.975c0.398,0,1.2,0.3,2.4,0.9s2.399,1.35,3.6,2.25s2.198,1.875,3,2.925
						c0.8,1.05,1.1,1.976,0.9,2.775l-3.75,11.7h0.3c2.498-4.099,5.1-7.95,7.8-11.55c2.7-3.6,5.325-6.75,7.875-9.45
						s4.925-4.849,7.125-6.45C434.063,407.044,436.014,406.193,437.716,406.093z"/>
					<path stroke="#ffffff" fill="none" stroke-width="4" d="M485.864,414.943c0.099-0.199,0.698-0.023,1.8,0.525c1.1,0.551,2.3,1.275,3.601,2.175c1.298,0.9,2.423,1.901,3.375,3
						c0.949,1.102,1.324,2.002,1.125,2.7c-2.101,6.802-3.976,13.2-5.625,19.2c-1.65,6-3.577,12.201-5.775,18.6
						c2.101-1.999,4.024-3.975,5.775-5.925c1.748-1.95,3.424-4.05,5.024-6.3c1.599-2.25,3.199-4.699,4.801-7.351
						c1.598-2.648,3.349-5.724,5.25-9.225c0.098-0.099,0.323-0.274,0.675-0.524c0.349-0.249,0.698-0.398,1.05-0.451
						c0.35-0.049,0.6,0.026,0.75,0.226c0.15,0.202,0.124,0.651-0.075,1.351c-2.2,4.3-4.2,8.001-6,11.1
						c-1.8,3.101-3.651,5.901-5.55,8.399c-1.9,2.501-3.9,4.875-6,7.125s-4.5,4.676-7.2,7.275c-0.501,1.699-1.274,4.275-2.325,7.725
						c-1.05,3.45-2.301,7.25-3.75,11.4c-1.45,4.148-3.074,8.424-4.875,12.825c-1.8,4.399-3.75,8.423-5.85,12.075
						c-2.1,3.648-4.301,6.698-6.6,9.149c-2.302,2.449-4.65,3.773-7.051,3.976c-1.8,0.199-3.449,0.049-4.949-0.45
						c-1.5-0.502-2.824-1.275-3.976-2.325c-1.148-1.05-2.048-2.275-2.7-3.675c-0.648-1.401-0.975-2.901-0.975-4.5
						c0.101-3.701,1.275-7.627,3.525-11.775c2.25-4.15,4.999-8.175,8.25-12.075c3.248-3.899,6.698-7.551,10.35-10.949
						c3.649-3.401,6.924-6.251,9.825-8.551l6-22.35l-0.15,0.15c-2.1,4-4.326,7.5-6.675,10.5c-2.351,3-4.676,5.475-6.975,7.425
						c-2.302,1.95-4.526,3.349-6.676,4.2c-2.151,0.848-4.026,1.073-5.625,0.675c-2.399-0.601-3.951-2.325-4.649-5.175
						c-0.701-2.851-0.877-6.35-0.525-10.5c0.35-4.148,1.1-8.648,2.25-13.5c1.148-4.85,2.374-9.575,3.675-14.175
						c1.299-4.6,2.551-8.799,3.75-12.601c1.2-3.799,2.049-6.698,2.551-8.7c0-0.199,0.574-0.023,1.725,0.525
						c1.148,0.551,2.349,1.275,3.6,2.175c1.25,0.9,2.375,1.875,3.375,2.925c0.999,1.05,1.351,1.976,1.051,2.775l-5.851,19.5
						c-3.101,10.301-5.051,18-5.85,23.1c-0.802,5.101-0.3,7.751,1.5,7.95c1.099,0.101,2.55-0.6,4.35-2.1s3.725-3.525,5.775-6.075
						c2.048-2.55,4.073-5.55,6.075-9c1.999-3.45,3.799-7.125,5.399-11.025c0.3-1.398,0.75-3.098,1.351-5.1c0.6-2,1.199-4.024,1.8-6.075
						c0.6-2.048,1.148-3.999,1.649-5.85C485.164,417.519,485.564,416.044,485.864,414.943z M469.664,475.543
						c-2.801,2.299-5.751,5.024-8.85,8.175c-3.101,3.15-5.925,6.424-8.475,9.825c-2.551,3.398-4.702,6.724-6.45,9.975
						c-1.749,3.249-2.675,6.124-2.775,8.625c-0.199,2.899,0.326,4.726,1.575,5.476s2.824,0.574,4.725-0.525
						c1.299-0.701,2.625-1.976,3.976-3.825c1.35-1.852,2.7-4.05,4.05-6.6s2.648-5.276,3.9-8.175c1.249-2.902,2.423-5.775,3.524-8.625
						c1.1-2.851,2.049-5.527,2.851-8.025C468.514,479.342,469.163,477.242,469.664,475.543z"/>
				</g>
			</g>
			</svg>
